<?xml version="1.0" encoding="utf-8"?>
<svg width="512px" height="512px" viewBox="0 0 512 512" version="1.1" xmlns:xlink="http://www.w3.org/1999/xlink" xmlns="http://www.w3.org/2000/svg">
  <defs>
    <path d="M512 0L512 0L512 512L0 512L0 0L512 0Z" id="path_1" />
    <clipPath id="clip_1">
      <use xlink:href="#path_1" clip-rule="evenodd" fill-rule="evenodd" />
    </clipPath>
  </defs>
  <g id="file">
    <path d="M512 0L512 0L512 512L0 512L0 0L512 0Z" id="file" fill="none" stroke="none" />
    <path d="M88 396L88 413.078C88 413.078 92.3555 440.224 161.329 442.98C161.329 442.98 234.351 444.814 249 413.078L249 396C249 396 225.929 415.945 190.897 418.707C190.897 418.707 149.378 423.189 119.041 413.078C119.041 413.078 104.673 409.696 88 396Z" id="Vector" fill="#061F4A" fill-rule="evenodd" stroke="none" clip-path="url(#clip_1)" />
    <path d="M328.335 207.105C330.244 206.163 332.24 205.441 333.252 204.019C347.13 184.527 360.822 164.903 374.703 145.414C376.724 142.577 376.498 140.716 373.796 138.773C370.156 136.155 366.546 133.491 362.995 130.754C358.969 127.652 359.074 125.631 363.716 123.803C380.83 117.063 398.002 110.47 415.192 103.925C418.798 102.552 420.558 104.245 419.947 108.526C418.94 115.58 417.669 122.596 416.567 129.637C414.952 139.965 413.461 150.312 411.732 160.62C411.428 162.427 410.212 164.08 409.417 165.804C407.862 165.035 406.127 164.498 404.785 163.455C400.742 160.314 396.852 156.976 392.254 153.179C389.395 157.115 386.761 160.662 384.209 164.267C368.852 185.966 353.498 207.669 338.178 229.395C334.288 234.912 326.884 235.176 322.43 230.105C314.788 221.405 306.942 212.885 299.244 204.234C297.265 202.01 295.518 199.579 292.826 196.187C279.621 215.557 267.429 233.439 255.341 251.169C249.779 247.121 244.963 243.618 240.181 240.138C254.39 219.478 268.515 199.039 282.52 178.519C287.453 171.291 294.186 171.202 300.129 177.776C309.149 187.752 318.661 197.281 328.335 207.105L328.335 207.105Z" id="Shape" fill="#061F4A" stroke="none" clip-path="url(#clip_1)" />
    <path d="M143.055 320.278C128.132 317.803 113.282 315.121 100.226 306.72C91.9547 301.397 86.7921 294.549 87.9081 284.035C88.3628 279.753 88.2078 275.367 87.9336 271.053C87.5233 264.6 90.3259 259.84 95.1211 255.971C104.151 248.684 114.844 245.289 125.94 242.831C129.209 242.107 132.192 243.059 132.307 246.383C132.37 248.235 130.039 251.006 128.104 251.927C122.893 254.407 117.143 255.753 111.93 258.229C106.517 260.8 100.449 263.982 100.421 270.79C100.393 277.359 106.227 280.358 111.493 283.084C123.201 289.145 135.945 291.726 148.829 292.778C160.386 293.722 172.123 293.77 183.692 292.957C198.033 291.949 212.35 289.84 225.361 282.961C230.339 280.328 235.871 277.693 236.026 270.998C236.188 263.968 230.403 261.211 225.32 258.541C221.098 256.324 216.423 254.961 211.932 253.266C210.544 252.742 208.653 252.78 207.78 251.834C206.307 250.237 204.527 247.986 204.674 246.154C204.777 244.875 208.091 242.62 209.609 242.883C222.149 245.065 234.168 248.742 243.707 257.845C247.353 261.324 249.333 265.494 249.069 270.725C248.835 275.377 248.694 280.079 249.091 284.709C249.863 293.718 245.621 299.949 238.788 304.986C229.368 311.929 218.55 315.48 207.32 318.079C205.756 318.441 204.279 319.182 202.302 319.565C201.195 319.522 200.549 319.661 199.902 319.801C199.467 319.838 199.032 319.875 197.849 319.975C189.743 320.74 182.384 321.443 175.026 322.145C170.982 322.097 166.939 322.049 161.995 322.009C158.739 322.064 156.384 322.111 154.028 322.157C154.028 322.157 153.58 322.008 153.141 321.643C149.486 320.945 146.27 320.612 143.055 320.278L143.055 320.278Z" id="Shape" fill="#061F4A" stroke="none" clip-path="url(#clip_1)" />
    <path d="M201.976 188.029C215 201.461 211.053 227.018 189.186 235.646C187.953 236.133 186.688 236.839 185.418 236.883C178.145 237.136 174.418 240.151 175.718 248.007C175.865 248.897 173.695 250.858 172.341 251.157C169.957 251.685 167.368 251.203 164.877 251.347C161.476 251.543 159.662 250.121 160.232 246.688C161.25 240.558 158.706 238.206 152.669 236.82C139.887 233.885 131.548 225.51 127.584 212.937C125.411 206.046 126.472 204.572 133.49 204.585C134.49 204.586 135.497 204.66 136.489 204.569C141.951 204.067 146.373 204.417 148.033 211.354C148.726 214.252 152.028 217.268 154.906 218.765C163.948 223.469 173.507 223.684 182.627 218.957C192.285 213.951 192.617 202.574 182.878 197.807C175.071 193.986 166.384 191.968 158.096 189.127C154.337 187.838 150.503 186.709 146.864 185.134C134.519 179.791 128.556 170.321 129.139 157.362C129.635 146.32 138.343 135.059 149.367 131.212C149.68 131.103 150.011 131.035 150.34 130.985C157.184 129.941 162.381 127.545 160.212 119.042C160.134 118.736 160.132 118.31 160.287 118.06C163.338 113.126 168.122 116.49 172.045 115.705C174.685 115.177 176.393 116.832 175.877 119.502C174.514 126.559 177.824 128.903 184.327 130.802C197.169 134.553 204.747 143.813 207.235 157.097C207.935 160.834 206.598 162.464 202.797 162.166C201.305 162.049 199.773 161.954 198.303 162.16C192.413 162.985 188.697 161.659 186.564 155.048C184.215 147.771 172.289 143.433 163.423 145.303C161.481 145.713 159.511 146.168 157.685 146.92C153.164 148.782 149.679 151.721 149.014 156.915C148.306 162.438 151.056 166.563 155.676 168.692C161.96 171.587 168.602 173.776 175.217 175.869C184.536 178.817 194.201 180.885 201.976 188.029L201.976 188.029Z" id="Shape" fill="#061F4A" stroke="none" clip-path="url(#clip_1)" />
    <path d="M152.297 362.758C136.153 361.868 121.075 358.455 107.037 351.374C102.506 349.089 98.3496 345.856 94.4748 342.529C89.8542 338.562 87.6512 333.32 87.9255 327.012C88.1857 321.028 87.9814 315.023 87.9814 308.81C88.5363 308.91 89.082 308.839 89.3247 309.077C105.196 324.64 125.389 329.305 146.451 332.076C161.583 334.066 176.648 334.078 191.731 331.977C212.496 329.085 232.627 324.604 248.137 308.835C254.898 329.373 246.501 345.055 224.824 353.934C201.537 363.474 177.271 363.796 152.297 362.758L152.297 362.758Z" id="Shape" fill="#061F4A" stroke="none" clip-path="url(#clip_1)" />
    <path d="M210.71 399.817C201.245 401.629 192.232 404.044 183.083 404.792C174.753 405.474 166.268 404.477 157.864 403.99C141.177 403.024 124.794 400.293 109.309 393.783C104.633 391.817 100.27 388.852 96.192 385.775C90.4294 381.428 87.5559 375.496 87.9208 368.031C88.1969 362.385 87.9755 356.713 87.9755 350.514C111.383 370.32 139.25 374.818 168.114 374.827C196.92 374.836 224.828 370.647 248.677 350.824C248.677 359.145 249.751 367.164 248.389 374.745C246.883 383.133 239.662 387.957 232.363 391.439C225.52 394.702 218.208 396.981 210.71 399.817L210.71 399.817Z" id="Shape" fill="#061F4A" stroke="none" clip-path="url(#clip_1)" />
    <path d="M319.364 291.916C316.815 294.649 314.686 298.036 311.638 299.99C303.342 305.31 292.787 302.516 287.811 294.246C282.711 285.768 285.317 274.873 293.633 269.911C302.151 264.828 312.701 267.541 317.837 276.136C318.346 276.988 318.854 277.84 320.156 278.848C327.392 279.002 333.838 279.094 340.279 278.957C343.305 278.893 346.323 278.388 349.345 278.083C356.015 266.443 362.715 254.819 369.343 243.154C372.622 237.386 375.809 231.565 378.96 225.725C380.787 222.337 383.317 220.756 387.358 220.817C400.344 221.014 413.336 220.789 426.322 220.962C429.553 221.005 431.339 220.077 432.972 217.14C437.162 209.602 445.11 206.731 453.485 209.14C460.457 211.146 465.931 218.651 465.875 226.125C465.815 234.051 460.748 240.558 452.772 242.954C444.548 245.425 438.177 243.377 433.4 235.858C431.374 232.669 429.173 231.877 425.701 231.94C415.047 232.132 404.382 232.208 393.733 231.91C389.804 231.801 387.751 233.258 385.952 236.544C376.95 252.988 367.79 269.346 358.574 285.671C357.561 287.466 355.833 288.857 353.757 290.71C343.712 290.99 334.345 290.948 324.98 291.045C323.105 291.064 321.235 291.612 319.364 291.916L319.364 291.916Z" id="Shape" fill="#061F4A" stroke="none" clip-path="url(#clip_1)" />
    <path d="M431.431 289.106C438.084 277.791 449.587 274.276 458.498 281.1C464.368 285.595 466.891 291.585 465.287 299.108C463.684 306.62 458.856 311.005 451.787 312.894C445.026 314.701 437.416 311.643 433.544 305.537C431.754 302.715 429.783 301.95 426.624 302.013C416.795 302.211 406.957 302.237 397.13 301.997C393.696 301.913 391.598 302.99 389.85 305.91C382.256 318.592 374.424 331.131 366.845 343.822C364.682 347.443 362.161 349.186 357.674 349.154C327.845 348.943 298.014 349.02 268.183 348.993C262.652 348.988 259.557 344.172 262.409 339.461C263.13 338.27 265.802 337.781 267.579 337.779C295.409 337.752 323.241 337.754 351.069 338.043C355.296 338.086 357.678 336.786 359.792 333.206C367.393 320.34 375.25 307.625 383.148 294.939C384.13 293.362 385.941 292.301 388.162 290.849C401.153 290.706 413.35 290.787 425.544 290.652C427.512 290.63 429.469 289.646 431.431 289.106L431.431 289.106Z" id="Shape" fill="#061F4A" stroke="none" clip-path="url(#clip_1)" />
    <path d="M390.156 370.389C385.879 375.024 381.372 379.448 376.963 383.962C375.753 383.95 375.747 383.95 375.744 383.953C375.741 383.956 375.739 383.962 374.5 383.962L374.485 384.019C374.325 384.007 374.163 384 374 384L267 384C263.686 384 261 386.686 261 390C261 393.314 263.686 396 267 396L371.422 396C371.65 396.002 371.925 396.001 372.2 396L373 396C379.107 396.054 383.711 395.265 387.563 390.228C390.275 386.683 393.489 383.393 396.978 380.615C399.225 378.826 402.322 377.351 405.131 377.17C409.226 376.907 413.342 376.978 417.459 377.048C420.345 377.097 423.232 377.147 426.114 377.081C429.249 377.01 431.359 377.707 433.039 380.647C436.177 386.135 441.433 388.609 447.569 388.904C456.2 389.32 463.585 383.222 465.347 374.581C465.602 373.328 465.726 372.074 465.727 370.837L465.727 370.815C465.722 363.525 461.455 356.809 454.778 354.236C452.624 353.405 450.399 353.002 448.211 353L448.183 353C442.139 353.005 436.377 356.077 433.151 361.7C431.306 364.915 429.213 366.029 425.615 365.917C421.704 365.795 417.788 365.814 413.873 365.833C409.621 365.854 405.37 365.875 401.125 365.715C396.547 365.543 393.174 367.118 390.156 370.389Z" id="Shape-Union" fill="#061F4A" fill-rule="evenodd" stroke="none" clip-path="url(#clip_1)" />
    <path d="M143.38 320.441C146.27 320.612 149.486 320.945 152.905 321.622C149.975 321.511 146.84 321.057 143.38 320.441L143.38 320.441Z" id="Shape" fill="#0E2F55" stroke="none" clip-path="url(#clip_1)" />
    <path d="M154.338 322.371C156.384 322.111 158.739 322.064 161.534 322.081C159.532 322.291 157.09 322.438 154.338 322.371L154.338 322.371Z" id="Shape" fill="#0E2F55" stroke="none" clip-path="url(#clip_1)" />
    <path d="M319.876 291.929C321.235 291.612 323.105 291.064 324.98 291.045C334.345 290.948 343.712 290.99 353.549 290.976C352.28 291.312 350.543 291.938 348.801 291.952C339.331 292.032 329.859 291.962 319.876 291.929L319.876 291.929Z" id="Shape" fill="#082B51" stroke="none" clip-path="url(#clip_1)" />
    <path d="M175.36 322.373C182.384 321.443 189.743 320.74 197.538 320.083C190.548 320.954 183.121 321.777 175.36 322.373L175.36 322.373Z" id="Shape" fill="#0E2F55" stroke="none" clip-path="url(#clip_1)" />
    <path d="M200.074 320.006C200.549 319.661 201.195 319.522 201.94 319.646C201.44 320.01 200.843 320.111 200.074 320.006L200.074 320.006Z" id="Shape" fill="#0E2F55" stroke="none" clip-path="url(#clip_1)" />
  </g>
</svg>